# xmcd
#
# Track frame offsets:
#	150
#	13499
#	28574
#	41849
#	62100
#	76500
#	86550
#	117826
#	139726
#	150976
#	160638
#	173867
#	188416
#	199217
#	216542
#	241367
#	258617
#	282843
#	303918
#	321843
#	335718
#
# Disc length: 4795 seconds
#
# Revision: 1
# Processed by: cddbd v1.5PL3 Copyright (c) Steve Scherf et al.
# Submitted via: CDex 1.50Beta5
#
DISCID=2512b915
DTITLE=THE BLUE HEARTS - Singles 1990-1993
DYEAR=1900
DGENRE=Rock
TTITLE0=情熱の薔薇
TTITLE1=鉄砲
TTITLE2=首つり台から
TTITLE3=シンデレラ(灰の中から)
TTITLE4=あの娘にタッチ
TTITLE5=わーわー〜 Live Version〜
TTITLE6=TOO MUCH PAIN
TTITLE7=泣かないで恋人よ
TTITLE8=夢
TTITLE9=皆殺しのメロディ 〜Live Version〜
TTITLE10=東京ゾンビ(ロシアンルーレット) 〜Live Version〜
TTITLE11=旅人
TTITLE12=台風
TTITLE13=1000のバイオリン
TTITLE14=俺は俺の死を死にたい 〜Alternative Version〜
TTITLE15=1001のバイオリン
TTITLE16=パーティー
TTITLE17=チャンス
TTITLE18=夕暮れ
TTITLE19=すてごま 〜Live Version〜
TTITLE20=夜の盗賊団
EXTD=
EXTT0=
EXTT1=
EXTT2=
EXTT3=
EXTT4=
EXTT5=
EXTT6=
EXTT7=
EXTT8=
EXTT9=
EXTT10=
EXTT11=
EXTT12=
EXTT13=
EXTT14=
EXTT15=
EXTT16=
EXTT17=
EXTT18=
EXTT19=
EXTT20=
PLAYORDER=
